<?xml version="1.0" standalone="no"?><!DOCTYPE svg PUBLIC "-//W3C//DTD SVG 1.1//EN" "http://www.w3.org/Graphics/SVG/1.1/DTD/svg11.dtd"><svg t="1656481528738" class="icon" viewBox="0 0 1024 1024" version="1.1" xmlns="http://www.w3.org/2000/svg" p-id="14029" xmlns:xlink="http://www.w3.org/1999/xlink" width="200" height="200"><defs><style type="text/css">@font-face { font-family: element-icons; src: url("chrome-extension://eibnkkenjjeaadmjkngfincfnapgpeao/fonts/element-icons.woff") format("woff"), url("chrome-extension://eibnkkenjjeaadmjkngfincfnapgpeao/fonts/element-icons.ttf") format("truetype"); }
@font-face { font-family: feedback-iconfont; src: url("//at.alicdn.com/t/font_1031158_u69w8yhxdu.woff2?t=1630033759944") format("woff2"), url("//at.alicdn.com/t/font_1031158_u69w8yhxdu.woff?t=1630033759944") format("woff"), url("//at.alicdn.com/t/font_1031158_u69w8yhxdu.ttf?t=1630033759944") format("truetype"); }
</style></defs><path d="M954.9 462C929 259.2 783.3 105.9 582 71.2c-60.2-10.4-120.5-9.1-179.7 8.7-12.7 0-24.1 5.2-35.6 9.3-101.3 36.1-181.5 98.4-236.9 191.4C100 326 82.6 376 71.7 428.9c-1.6 7.8 0.9 17.2-7.3 23.1v118.9c10.9 20.2 10.5 43.5 16.9 65 63.8 213.7 266.8 346 489.3 318.2C808.4 924.3 985 698.2 954.9 462zM847.5 253.4c-28.5 2-51.1 4-71.5-20.4-26.5-31.7-60.9-56.1-98.3-74.2-22.6-11-38.9-24.9-43.4-53.2 86.2 27.1 156 75.4 213.2 147.8z m-326.1-27.2c-0.1-8.1 2.4-11.7 9.8-14.7 33-13.8 65.9-27.9 98.5-42.7 8.4-3.8 14.7-3 22.5 0.9 46.4 23.3 86.6 54.5 122.2 92.1 5.5 5.8 7.9 11.7 7.7 19.8-0.5 17.3-0.1 34.6-0.1 51.9 0 17.9-0.5 35.9 0.2 53.8 0.3 8.8-2.4 13.1-10.8 16.3-33.5 12.5-66.8 25.6-100 39-7.1 2.9-12.3 2-18.5-2.6-40.8-30.1-81.8-59.8-122.9-89.3-6.2-4.5-8.7-9-8.6-16.7 0.4-36.1 0.5-72 0-107.8z m-32-15.7c7.7 3.5 10.8 7.6 10.7 16.4-0.6 35.3-0.5 70.5 0 105.8 0.1 8.4-2.6 13.4-9.3 18.3-40.6 29.2-81 58.8-121.4 88.5-5.8 4.3-10.9 6.1-18.5 3-33.8-13.7-67.8-26.7-101.9-39.5-7.9-2.9-9.9-7.4-9.7-15.2 0.5-17.9 0.1-35.9 0.1-53.9 0-8 1.2-16.3-0.2-24.1-5.9-32.5 9-54.7 32.8-74.8 30.9-26 62.9-49.9 99-68.1 7-3.5 12.9-4.9 20.7-1.2 32.4 15.4 65 30.2 97.7 44.8z m-286.3 15.1c33.7-35.1 72.1-64.2 115.3-86.6 20.1-10.4 40.1-21.1 62.7-24.6-6.7 11.6-11.3 24.1-25.4 30.8-53 25.2-97.1 62.4-135.6 106.4-0.1 0.1-0.1 0.2-0.2 0.3-10-4.6-22.7 1.7-33.2-5.1 5.3-8.1 10.5-15 16.4-21.2z m-29 541.7c-64.7-84.5-93.2-179-86.8-288.1 16.3 18.3 33.6 29.5 35.7 55.2 5.3 64.1 23 124.7 58 180 11 17.1-4.5 35-6.9 52.9zM325.5 735c-40-8.8-77.9-17.4-115.9-25.5-7.2-1.6-9.5-7.1-12.7-12.3-36.7-58.1-49.6-122.9-54.9-190.1-0.6-7.4 3.1-11.1 7.9-15.4 24-21.3 48.1-42.5 71.6-64.4 6.9-6.4 12.6-7.2 21.2-3.6 32.5 13.3 65.3 26.1 98.2 38.3 8.3 3.1 13.1 7.2 15.8 15.8 15 47.6 30.4 95.1 46.3 142.5 2.7 8 1.9 13.7-3 20.4-20.9 28.3-41.3 56.9-61.9 85.4-3.5 4.9-6.5 11.2-12.6 8.9z m39.6 174.3c19.3-12.6 34.5-26.5 61.3-19.8 55.8 13.9 112.5 13.8 168.6-1.3 4.2-1.2 8.3-2.7 12.3 0.3 11.3 8.3 22.5 16.6 34.7 25.5-72.7 30.9-201.2 28.7-276.9-4.7z m294.6-145.5c-23.2 31.2-46.1 62.6-68.3 94.5-5.9 8.5-13 12-22.5 13.8-48.8 9-97.1 4.9-145.4-4.3-7.8-1.5-11.2-6.5-14.6-12.6-17.9-31.7-35.7-63.4-54-94.8-4.6-7.9-4.8-13.7 1-21.5 21.1-28.1 41.7-56.7 61.8-85.6 4.9-7.1 10.4-9 18.4-8.9 25.3 0.3 50.7 0.1 76 0.1v0.3c24.7 0 49.4 0.1 74.1-0.1 7.1-0.1 12 1 16.4 8.1 18.8 30.5 38 60.6 58.1 90.2 5.7 8.4 4.6 13.4-1 20.8z m157.7-45c-4.5 7.6-10.1 11-19.2 11.7-32.6 2.9-65.2 6.4-97.6 10.5-10.6 1.3-16.6-1.6-22.4-10.9-18.1-29.5-37.2-58.3-56.5-87-5-7.4-5.9-14.2-3.2-22.5 15.8-47.4 31.4-94.9 46.5-142.5 2.7-8.6 7.4-13.2 15.6-16.3 32.9-12.4 65.7-25.2 98.3-38.4 8.7-3.5 14.6-2.3 21.4 4 24.5 22.6 49.4 44.8 74.6 66.8 5.8 5.1 8.1 10.6 7.1 15.9-6.5 75.6-26.7 144.9-64.6 208.7z m21.7 62.1c-6.7-25.4-7.4-45.8 6.2-68.4 32.1-53.6 48.6-113.1 56.2-175.1 3.9-32 4.4-32.8 33-56.2 6.4 113-25.1 211.3-95.4 299.7z" p-id="14030"></path></svg>