<?xml version="1.0" standalone="no"?><!DOCTYPE svg PUBLIC "-//W3C//DTD SVG 1.1//EN" "http://www.w3.org/Graphics/SVG/1.1/DTD/svg11.dtd"><svg t="1656667070977" class="icon" viewBox="0 0 1024 1024" version="1.1" xmlns="http://www.w3.org/2000/svg" p-id="7699" xmlns:xlink="http://www.w3.org/1999/xlink" width="200" height="200"><defs><style type="text/css">@font-face { font-family: element-icons; src: url("chrome-extension://eibnkkenjjeaadmjkngfincfnapgpeao/fonts/element-icons.woff") format("woff"), url("chrome-extension://eibnkkenjjeaadmjkngfincfnapgpeao/fonts/element-icons.ttf") format("truetype"); }
@font-face { font-family: feedback-iconfont; src: url("//at.alicdn.com/t/font_1031158_u69w8yhxdu.woff2?t=1630033759944") format("woff2"), url("//at.alicdn.com/t/font_1031158_u69w8yhxdu.woff?t=1630033759944") format("woff"), url("//at.alicdn.com/t/font_1031158_u69w8yhxdu.ttf?t=1630033759944") format("truetype"); }
</style></defs><path d="M325.024427 244.616533c72.4992-46.052693 364.997973 14.506667 456.92928 145.158827 38.219093 54.33344 32 174.912853-113.872214 312.9856-199.502507 188.88704-175.81056 268.393813-275.41504 306.080427-112.19968 42.43456-266.61888-38.273707-269.421226-111.854934-6.232747-164.379307 108.8512-123.200853 166.673066-270.61248 66.89792-170.663253-113.70496-287.204693 35.106134-381.75744zM360.83712 3.413333c41.2672 0 74.714453 49.19296 74.714453 109.841067s-33.49504 109.841067-74.714453 109.841067-74.687147-49.17248-74.687147-109.841067S319.593813 3.413333 360.83712 3.413333z m189.771093 32.474454c32.621227 5.2736 51.27168 49.916587 41.721174 99.6864s-43.813547 85.87264-76.42112 80.592213c-32.610987-5.2736-51.278507-49.88928-41.700694-99.659093 9.58464-49.769813 43.779413-85.858987 76.40064-80.61952z m147.278507 76.936533c33.160533 10.37312 46.987947 49.58208 30.900907 87.596373s-56.040107 60.392107-89.15968 50.018987c-33.1264-10.366293-47.005013-49.660587-30.972587-87.606613 16.04608-37.9392 56.005973-60.402347 89.193813-50.018987l0.037547 0.01024z m135.161173 112.86528c23.36768 12.88192 23.13216 44.680533-0.453973 70.97344-23.586133 26.28608-61.627733 37.07904-84.998827 24.221013-23.36768-12.86144-23.138987-44.67712 0.488107-70.966613 23.620267-26.292907 61.627733-37.082453 84.927147-24.234667l0.037546 0.006827z m58.740054 115.39456c16.421547 17.882453 10.30144 48.03584-13.725014 67.341653-24.0128 19.3024-56.726187 20.48-73.168213 2.566827-16.431787-17.906347-10.287787-48.032427 13.7216-67.341653s56.746667-20.48 73.161387-2.573654l0.01024 0.006827z" p-id="7700"></path></svg>