<?xml version="1.0" standalone="no"?><!DOCTYPE svg PUBLIC "-//W3C//DTD SVG 1.1//EN" "http://www.w3.org/Graphics/SVG/1.1/DTD/svg11.dtd"><svg t="1657003751109" class="icon" viewBox="0 0 1024 1024" version="1.1" xmlns="http://www.w3.org/2000/svg" p-id="15169" xmlns:xlink="http://www.w3.org/1999/xlink" width="200" height="200"><defs><style type="text/css">@font-face { font-family: feedback-iconfont; src: url("//at.alicdn.com/t/font_1031158_u69w8yhxdu.woff2?t=1630033759944") format("woff2"), url("//at.alicdn.com/t/font_1031158_u69w8yhxdu.woff?t=1630033759944") format("woff"), url("//at.alicdn.com/t/font_1031158_u69w8yhxdu.ttf?t=1630033759944") format("truetype"); }
</style></defs><path d="M867.2 160 160 160C105.6 160 64 204.8 64 256l0 512c0 54.4 41.6 96 96 96l707.2 0c54.4 0 96-41.6 96-96L963.2 256C963.2 204.8 921.6 160 867.2 160zM899.2 768c0 19.2-12.8 32-32 32L160 800c-19.2 0-32-12.8-32-32L128 256c0-19.2 12.8-32 32-32l707.2 0c19.2 0 32 12.8 32 32L899.2 768z" p-id="15170"></path><path d="M227.2 544 416 544c19.2 0 32-12.8 32-32l0-188.8c0-19.2-12.8-32-32-32L227.2 291.2c-19.2 0-32 12.8-32 32L195.2 512C195.2 531.2 208 544 227.2 544zM259.2 355.2 384 355.2 384 480 259.2 480 259.2 355.2z" p-id="15171"></path><path d="M800 288l-256 0c-19.2 0-32 12.8-32 32s12.8 32 32 32l256 0c19.2 0 32-12.8 32-32S819.2 288 800 288z" p-id="15172"></path><path d="M672 480c19.2 0 32-12.8 32-32s-12.8-32-32-32l-128 0c-19.2 0-32 12.8-32 32s12.8 32 32 32L672 480z" p-id="15173"></path><path d="M800 672 224 672c-19.2 0-32 12.8-32 32s12.8 32 32 32l576 0c19.2 0 32-12.8 32-32S819.2 672 800 672z" p-id="15174"></path></svg>