<?xml version="1.0" standalone="no"?><!DOCTYPE svg PUBLIC "-//W3C//DTD SVG 1.1//EN" "http://www.w3.org/Graphics/SVG/1.1/DTD/svg11.dtd"><svg t="1657173278164" class="icon" viewBox="0 0 1024 1024" version="1.1" xmlns="http://www.w3.org/2000/svg" p-id="8290" xmlns:xlink="http://www.w3.org/1999/xlink" width="200" height="200"><defs><style type="text/css">@font-face { font-family: element-icons; src: url("chrome-extension://eibnkkenjjeaadmjkngfincfnapgpeao/fonts/element-icons.woff") format("woff"), url("chrome-extension://eibnkkenjjeaadmjkngfincfnapgpeao/fonts/element-icons.ttf") format("truetype"); }
@font-face { font-family: feedback-iconfont; src: url("//at.alicdn.com/t/font_1031158_u69w8yhxdu.woff2?t=1630033759944") format("woff2"), url("//at.alicdn.com/t/font_1031158_u69w8yhxdu.woff?t=1630033759944") format("woff"), url("//at.alicdn.com/t/font_1031158_u69w8yhxdu.ttf?t=1630033759944") format("truetype"); }
</style></defs><path d="M792.340873 518.611581c-12.423961 0-24.475438-1.819438-36.104289-4.988618 9.79304-16.262382 18.644639-33.708729 26.524097-52.216245 3.174296 0.314155 6.362918 0.585331 9.607822 0.585331 64.572668 0 98.329493-100.511181 98.329493-178.627307 0-65.161069-36.461423-99.115392-86.011956-99.115392 0.045025-20.089547 0.073678-40.892339 0.063445-58.153468 75.592652 0 132.73407 60.682058 132.73407 157.251464C937.483554 392.745942 882.768395 518.611581 792.340873 518.611581zM524.037151 645.816728c-142.451386 0-268.660856-174.061314-268.660856-388.781654 0-10.6782 0.499373-158.452825 1.062192-168.917154l530.910699 0c0.557702 10.464329-0.01535 158.237931-0.01535 168.917154C787.333836 471.755414 666.490583 645.816728 524.037151 645.816728zM390.513088 139.599432l-66.189492-0.306992c0 0-6.740518 444.317505 203.467041 459.332477C366.91667 480.652038 390.513088 139.599432 390.513088 139.599432zM249.27125 461.993073c3.241834 0 6.433526-0.271176 9.609869-0.585331 7.879458 18.506493 16.726963 35.953863 26.52205 52.216245-11.630898 3.169179-23.680329 4.988618-36.102243 4.988618-90.429569 0-145.143705-125.866662-145.143705-235.264235 0-96.569406 57.140395-157.251464 132.73407-157.251464-0.010233 17.261129 0.01842 38.063921 0.061398 58.153468-49.549509 0-86.010933 33.954323-86.010933 99.115392C150.941757 361.481891 184.696536 461.993073 249.27125 461.993073zM474.1653 716.331735c0-25.02393 20.288069-45.314045 45.310975-45.314045 25.029046 0 45.316092 20.290115 45.316092 45.314045 0 25.028023-20.286022 45.311998-45.316092 45.311998C494.453369 761.643734 474.1653 741.359758 474.1653 716.331735zM651.128711 817.413921c0 23.692608-19.207457 42.898019-42.898019 42.898019L435.555957 860.311941c-23.692608 0-42.898019-19.205411-42.898019-42.898019 0-23.694655 19.205411-42.900066 42.898019-42.900066l172.674735 0C631.922277 774.513856 651.128711 793.719266 651.128711 817.413921zM349.756849 877.474832l326.037634 0c38.70758 0 42.900066 44.946678 42.900066 68.639287-176.958294 0-238.09163 0-411.837766 0C306.856783 922.422534 309.974797 877.474832 349.756849 877.474832z" p-id="8291"></path></svg>