<?xml version="1.0" standalone="no"?><!DOCTYPE svg PUBLIC "-//W3C//DTD SVG 1.1//EN" "http://www.w3.org/Graphics/SVG/1.1/DTD/svg11.dtd"><svg t="1657003721291" class="icon" viewBox="0 0 1025 1024" version="1.1" xmlns="http://www.w3.org/2000/svg" p-id="12590" xmlns:xlink="http://www.w3.org/1999/xlink" width="200.1953125" height="200"><defs><style type="text/css">@font-face { font-family: feedback-iconfont; src: url("//at.alicdn.com/t/font_1031158_u69w8yhxdu.woff2?t=1630033759944") format("woff2"), url("//at.alicdn.com/t/font_1031158_u69w8yhxdu.woff?t=1630033759944") format("woff"), url("//at.alicdn.com/t/font_1031158_u69w8yhxdu.ttf?t=1630033759944") format("truetype"); }
</style></defs><path d="M678.415754 996.099938c1.559631-0.527754 3.127138-1.000369 4.678892-1.543876 5.175138-1.819569 10.287262-3.812431 15.399385-5.789539 2.827815-1.094892 5.671385-2.111015 8.475569-3.261046 3.969969-1.622646 7.8848-3.394954 11.815385-5.112123 3.851815-1.685662 7.719385-3.308308 11.539692-5.096369 2.993231-1.402092 5.931323-2.930215 8.900923-4.387447 4.631631-2.276431 9.271138-4.521354 13.847631-6.939569 2.260677-1.197292 4.466215-2.496985 6.711138-3.733661 5.143631-2.827815 10.295138-5.647754 15.36-8.664616 1.827446-1.087015 3.607631-2.268554 5.419323-3.3792 5.356308-3.2768 10.704738-6.569354 15.958646-10.066707 1.717169-1.142154 3.3792-2.370954 5.080616-3.536739a508.983138 508.983138 0 0 0 15.588431-10.933169c2.032246-1.504492 4.001477-3.111385 6.010092-4.647385 4.686769-3.568246 9.389292-7.120738 13.973661-10.870154 3.016862-2.4576 5.915569-5.072738 8.877293-7.609107 3.489477-2.993231 7.034092-5.899815 10.460554-8.995446a517.127877 517.127877 0 0 0 18.7392-17.786093l0.645907-0.677415a525.501046 525.501046 0 0 0 18.046031-19.030646c1.283938-1.425723 2.489108-2.898708 3.749415-4.340185a517.387815 517.387815 0 0 0 14.20997-16.722708c0.929477-1.150031 1.811692-2.323692 2.725415-3.4816a515.584 515.584 0 0 0 14.383262-18.920369l1.189415-1.685661c58.698831-81.864862 91.687385-178.853415 94.838154-281.032862l0.063015-2.583631c0.118154-4.521354 0.330831-9.026954 0.330831-13.564061 0-3.875446-0.196923-7.719385-0.283569-11.579077l-0.063016-2.473354c-3.528862-131.497354-56.32-254.621538-149.826953-348.002461C786.337477 60.864985 672.610462 11.6736 556.150154 1.874708c-0.811323-0.126031-1.599015-0.346585-2.433969-0.417477C549.454769 1.118523 545.209108 1.024 540.947692 0.787692c-1.984985-0.110277-3.969969-0.228431-5.954954-0.315077A525.6192 525.6192 0 0 0 515.087754 0c-1.685662-0.007877-3.371323 0-5.056985 0.007877-6.947446 0.031508-13.879138 0.181169-20.795077 0.496246-1.1264 0.055138-2.244923 0.133908-3.363446 0.189046a512.787692 512.787692 0 0 0-113.112615 18.684062c-2.449723 0.693169-4.907323 1.315446-7.349169 2.048-4.804923 1.4336-9.554708 3.024738-14.31237 4.600123-3.749415 1.236677-7.506708 2.4576-11.232492 3.7888-4.001477 1.4336-7.963569 2.961723-11.933538 4.489846a520.349538 520.349538 0 0 0-13.319877 5.301169c-3.418585 1.425723-6.805662 2.914462-10.192739 4.411077a500.554831 500.554831 0 0 0-38.959261 19.306339c-2.583631 1.425723-5.175138 2.835692-7.735139 4.3008-5.356308 3.064123-10.641723 6.270031-15.903508 9.538953-2.307938 1.4336-4.631631 2.843569-6.923815 4.316554-5.372062 3.465846-10.673231 7.089231-15.942892 10.775631-2.118892 1.480862-4.261415 2.906585-6.364554 4.426831-5.309046 3.828185-10.515692 7.845415-15.698708 11.902031-1.969231 1.536-3.977846 3.008985-5.923446 4.576492a509.243077 509.243077 0 0 0-15.722338 13.319877c-1.685662 1.472985-3.426462 2.8672-5.09637 4.363815a512.346585 512.346585 0 0 0-19.88923 18.810093 525.532554 525.532554 0 0 0-18.723447 19.747446c-1.213046 1.346954-2.3552 2.749046-3.552492 4.103877a513.606892 513.606892 0 0 0-14.406892 16.959015c-0.882215 1.094892-1.725046 2.221292-2.599385 3.324062a502.6816 502.6816 0 0 0-14.501415 19.085784c-0.370215 0.512-0.732554 1.039754-1.094892 1.559631C36.627692 296.321969 3.615508 393.349908 0.464738 495.576615l-0.063015 2.512739c-0.118154 4.544985-0.330831 9.066338-0.330831 13.627077 0 3.875446 0.196923 7.727262 0.28357 11.586954l0.063015 2.418215c3.520985 131.505231 56.32 254.645169 149.834831 348.026092 88.922585 88.804431 202.625969 137.987938 319.094154 147.778954 0.8192 0.133908 1.606892 0.354462 2.449723 0.417477a513.882585 513.882585 0 0 0 186.895753-19.519015l0.118154-0.031508a489.117538 489.117538 0 0 0 19.605662-6.293662z m23.063631-76.855138c-1.157908 0.535631-2.339446 0.992492-3.505231 1.520246-5.458708 2.465477-10.948923 4.867938-16.502154 7.112862-4.4032 1.772308-8.853662 3.371323-13.296246 5.001846-2.331569 0.858585-4.631631 1.780185-6.971077 2.599384-6.096738 2.118892-12.240738 4.064492-18.408369 5.91557-0.708923 0.212677-1.402092 0.464738-2.111016 0.669538a451.4816 451.4816 0 0 1-84.5824 16.336739l-0.283569 0.031507c-6.782031 0.645908-13.579815 1.118523-20.3776 1.457231l-1.591138 0.086646a467.180308 467.180308 0 0 1-19.077908 0.456862c-1.063385 0-2.134646 0.023631-3.198031 0.015754-2.410338-0.007877-4.820677-0.126031-7.223138-0.173293A448 448 0 0 1 635.840985 634.667323a449.362708 449.362708 0 0 1 326.388184-131.324061l0.007877 0.252061c0.133908 7.388554 0.086646 14.761354-0.141784 22.1184l-0.015754 0.638031a447.866092 447.866092 0 0 1-131.331939 302.812554 449.339077 449.339077 0 0 1-129.268184 90.080492zM63.2832 519.813908a460.484923 460.484923 0 0 1 0.141785-22.134154l0.015753-0.6144a447.921231 447.921231 0 0 1 131.331939-302.828308A448.638031 448.638031 0 0 1 365.3632 87.591385c1.599015-0.551385 3.221662-1.016123 4.828554-1.551754 5.253908-1.748677 10.531446-3.465846 15.848369-5.025477 3.284677-0.960985 6.600862-1.780185 9.901292-2.6624 3.662769-0.984615 7.317662-2.000738 11.004062-2.890831 4.332308-1.039754 8.696123-1.937723 13.052061-2.843569 2.693908-0.567138 5.372062-1.181538 8.081724-1.701416 4.986092-0.945231 9.987938-1.748677 14.997661-2.520615 2.111015-0.330831 4.222031-0.701046 6.340923-1.008246a445.376985 445.376985 0 0 1 16.163446-1.929846c1.788062-0.189046 3.568246-0.4096 5.364185-0.575016a442.273477 442.273477 0 0 1 16.777846-1.197292c1.6384-0.094523 3.268923-0.2048 4.907323-0.283569a457.948554 457.948554 0 0 1 17.092923-0.4096c1.559631-0.007877 3.119262-0.039385 4.678893-0.031508 2.2528 0.007877 4.5056 0.118154 6.7584 0.157539a447.960615 447.960615 0 0 1-131.497354 325.616246C302.970092 475.325046 185.328246 522.334523 63.291077 520.065969l-0.007877-0.252061z m5.521723 63.291077c1.008246 0.007877 2.016492 0.063015 3.024739 0.063015 135.593354 0 265.814646-53.405538 362.369969-149.834831C531.424492 336.250092 584.798523 205.083569 584.081723 68.678892c90.356185 14.383262 177.152 56.170338 246.650092 125.566031 67.843938 67.757292 111.245785 153.363692 125.999262 246.185354-136.719754-0.8192-268.138338 52.507569-365.418339 149.653661-97.216985 97.0752-150.591015 228.241723-149.874215 364.638524-90.356185-14.383262-177.152-56.162462-246.650092-125.558154-67.828185-67.710031-111.222154-153.269169-125.983508-246.059323z" fill="" p-id="12591"></path></svg>