<?xml version="1.0" standalone="no"?><!DOCTYPE svg PUBLIC "-//W3C//DTD SVG 1.1//EN" "http://www.w3.org/Graphics/SVG/1.1/DTD/svg11.dtd"><svg t="1657003731757" class="icon" viewBox="0 0 1024 1024" version="1.1" xmlns="http://www.w3.org/2000/svg" p-id="13366" xmlns:xlink="http://www.w3.org/1999/xlink" width="200" height="200"><defs><style type="text/css">@font-face { font-family: feedback-iconfont; src: url("//at.alicdn.com/t/font_1031158_u69w8yhxdu.woff2?t=1630033759944") format("woff2"), url("//at.alicdn.com/t/font_1031158_u69w8yhxdu.woff?t=1630033759944") format("woff"), url("//at.alicdn.com/t/font_1031158_u69w8yhxdu.ttf?t=1630033759944") format("truetype"); }
</style></defs><path d="M242.861124 120.292034l0 569.88162c0 0 114.299305-138.116957 290.482253-65.081675 68.267515 39.718871 133.352187 93.696274 238.120954 93.696274 104.737788 0 177.799052-65.119649 177.799052-65.119649L949.263383 106.007119c0 0-155.558132 160.321502-353.202729 23.821449-51.57883-38.115957-138.896028-72.975323-211.896334-53.9822C311.133236 94.934227 242.861124 120.292034 242.861124 120.292034L242.861124 120.292034zM117.012849 954.067934c-26.15067 0-47.31572-21.195429-47.31572-47.325713L69.697129 114.076648c0-26.116693 21.16505-47.31572 47.31572-47.31572 26.161263 0 47.325713 21.199027 47.325713 47.31572L164.338562 906.742221C164.338562 932.872504 143.168516 954.067934 117.012849 954.067934L117.012849 954.067934z" p-id="13367"></path></svg>