<?xml version="1.0" standalone="no"?><!DOCTYPE svg PUBLIC "-//W3C//DTD SVG 1.1//EN" "http://www.w3.org/Graphics/SVG/1.1/DTD/svg11.dtd"><svg t="1656481556872" class="icon" viewBox="0 0 1024 1024" version="1.1" xmlns="http://www.w3.org/2000/svg" p-id="15538" xmlns:xlink="http://www.w3.org/1999/xlink" width="200" height="200"><defs><style type="text/css">@font-face { font-family: element-icons; src: url("chrome-extension://eibnkkenjjeaadmjkngfincfnapgpeao/fonts/element-icons.woff") format("woff"), url("chrome-extension://eibnkkenjjeaadmjkngfincfnapgpeao/fonts/element-icons.ttf") format("truetype"); }
@font-face { font-family: feedback-iconfont; src: url("//at.alicdn.com/t/font_1031158_u69w8yhxdu.woff2?t=1630033759944") format("woff2"), url("//at.alicdn.com/t/font_1031158_u69w8yhxdu.woff?t=1630033759944") format("woff"), url("//at.alicdn.com/t/font_1031158_u69w8yhxdu.ttf?t=1630033759944") format("truetype"); }
</style></defs><path d="M512 0C228.693333 0 0 228.693333 0 512c0 133.12 51.2 256 136.533333 344.746667l3.413334 6.826666 3.413333 3.413334C238.933333 962.56 368.64 1024 512 1024c283.306667 0 512-228.693333 512-512S795.306667 0 512 0z m457.386667 368.64l-85.333334-23.893333L785.066667 184.32V119.466667c85.333333 61.44 150.186667 146.773333 184.32 249.173333z m-303.786667 447.146667l-116.053333-88.746667 61.44-163.84 177.493333-13.653333 30.72 177.493333-153.6 88.746667zM515.413333 716.8l-215.04 34.133333-92.16-170.666666 92.16-170.666667 153.6-13.653333 122.88 157.013333-61.44 163.84zM395.946667 139.946667l143.36 71.68-88.746667 146.773333-150.186667 17.066667-58.026666-116.053334 153.6-119.466666zM750.933333 98.986667s0 3.413333 0 0V170.666667l-184.32 13.653333L409.6 109.226667V44.373333c34.133333-6.826667 68.266667-10.24 102.4-10.24 88.746667 0 170.666667 23.893333 238.933333 64.853334zM109.226667 256l102.4 13.653333L273.066667 389.12l-95.573334 170.666667-136.533333 13.653333c-3.413333-17.066667-6.826667-37.546667-6.826667-61.44 0-92.16 27.306667-180.906667 75.093334-256z m133.12 648.533333L300.373333 785.066667l221.866667-30.72 122.88 92.16-30.72 133.12c-34.133333 6.826667-68.266667 10.24-105.813333 10.24-98.986667 0-191.146667-30.72-266.24-85.333334zM942.08 716.8h-92.16l-30.72-184.32 61.44-153.6 98.986667 27.306667c6.826667 34.133333 13.653333 68.266667 13.653333 105.813333-3.413333 75.093333-20.48 143.36-51.2 204.8z" fill="" p-id="15539"></path></svg>